# xmcd
# 
# Track frame offsets:
#     150
#     11467
#     21937
#     31767
#     42460
#     52742
#     63862
#     75560
#     86820
#     98847
#     108590
#     125742
#     135362
#     144845
#     154347
#     163677
#     174417
#     184677
#     194330
#     203960
# 
# Disc length: 2892
# 
# Revision: 3
# Processed by: cddbd v1.5.2PL0 Copyright (c) Steve Scherf et al.
# Submitted via: fre:ac v1.0.31
# 
DISCID=040b4a14
DTITLE=Floyd Cramer - The Essential Floyd Cramer
DYEAR=1995
DGENRE=Easy Listening
TTITLE0=Last Date
TTITLE1=Fancy Pants
TTITLE2=I'm So Lonesome I Could Cry
TTITLE3=San Antonio Rose
TTITLE4=Flip Flop And Bop
TTITLE5=Your Last Goodbye
TTITLE6=Corrine Corrina
TTITLE7=Drown In My Own Tears
TTITLE8=I Need You Now
TTITLE9=On The Rebound
TTITLE10=Georgia On My Mind
TTITLE11=Lovesick Blues
TTITLE12=Chattanooga Choo Choo
TTITLE13=Losers Weepers
TTITLE14=Java
TTITLE15=Shrum
TTITLE16=(These Are) The Young Years
TTITLE17=All Keyed Up
TTITLE18=Stood Up
TTITLE19=What'd I Say
EXTD=
EXTT0=
EXTT1=
EXTT2=
EXTT3=
EXTT4=
EXTT5=
EXTT6=
EXTT7=
EXTT8=
EXTT9=
EXTT10=
EXTT11=
EXTT12=
EXTT13=
EXTT14=
EXTT15=
EXTT16=
EXTT17=
EXTT18=
EXTT19=
PLAYORDER=
